<svg xmlns="http://www.w3.org/2000/svg" version="1.1" xmlns:xlink="http://www.w3.org/1999/xlink" xmlns:svgjs="http://svgjs.dev/svgjs" width="2000" height="1500" viewBox="0 0 2000 1500"><rect width="2000" height="1500" fill="#ffffff"></rect><g transform="matrix(0.75,0,0,0.75,250,0)"><svg viewBox="0 0 280 280" data-background-color="#d84c23" preserveAspectRatio="xMidYMid meet" height="2000" width="2000" xmlns="http://www.w3.org/2000/svg" xmlns:xlink="http://www.w3.org/1999/xlink"><g id="tight-bounds" transform="matrix(1,0,0,1,0,0)"><svg viewBox="0 0 280 280" height="280" width="280"><g><svg viewBox="0 0 280 280" height="280" width="280"><g><svg viewBox="0 0 280 280" height="280" width="280"><g id="textblocktransform"><svg viewBox="0 0 280 280" height="280" width="280" id="textblock"><g><svg viewBox="0 0 280 280" height="280" width="280"><g transform="matrix(1,0,0,1,91.49247481060284,90.50252531694167)"><svg viewBox="0 0 97.01505037879431 98.99494936611666" height="98.99494936611666" width="97.01505037879431"><g id="icon-0"><svg xmlns="http://www.w3.org/2000/svg" xmlns:xlink="http://www.w3.org/1999/xlink" version="1.1" x="0" y="0" viewBox="0 0 98 100.00000000000001" enable-background="new 0 0 100 100" xml:space="preserve" width="97.01505037879431" height="98.99494936611666" class="icon-xg-0" data-fill-palette-color="accent" id="xg-0"><g fill="#efd592" data-fill-palette-color="accent"><circle cx="49.494" cy="6.603" r="2.1" fill="#000000" data-fill-palette-color="accent"></circle><path d="M18.267 34.851l6.123-7.465c0.518-0.63 0.425-1.56-0.204-2.076-0.629-0.517-1.56-0.424-2.076 0.204l-6.972 8.499c-0.481 0.586-0.439 1.443 0.098 1.979l7.593 7.591c0.288 0.289 0.665 0.433 1.042 0.433 0.378 0 0.755-0.144 1.043-0.433 0.576-0.576 0.576-1.51 0-2.086L18.267 34.851z" fill="#000000" data-fill-palette-color="accent"></path><path d="M44.093 32.998L36.5 25.406c-0.576-0.576-1.509-0.576-2.086 0-0.576 0.577-0.576 1.511 0 2.087l6.647 6.646-6.123 7.465c-0.516 0.63-0.424 1.56 0.206 2.077 0.274 0.225 0.605 0.334 0.935 0.334 0.427 0 0.851-0.185 1.142-0.54l6.97-8.499C44.671 34.39 44.63 33.534 44.093 32.998z" fill="#000000" data-fill-palette-color="accent"></path><path d="M88.568 0H9.432C4.491 0 0 4.02 0 8.96v55.608C0 69.51 4.491 74 9.432 74h31.279c0.159 2 0.311 8.268-0.323 10.369-1.163 1.729-13.49 5.365-24.164 7.854C15.56 92.379 15 92.854 15 93.537v4.992c0 0.813 0.835 1.471 1.647 1.471h64.707C82.166 100 83 99.342 83 98.529v-4.992c0-0.684-0.559-1.277-1.225-1.434-10.732-2.486-23.082-6.008-24.202-7.625C56.896 82.277 56.925 76 57.039 74h31.529C93.508 74 98 69.51 98 64.568V8.96C98 4.02 93.508 0 88.568 0zM80 94.703V97H18v-2.298c11-2.638 24.097-6.121 25.095-9.362C43.963 82.512 43.796 76 43.657 74h10.438c-0.104 2-0.188 8.514 0.682 11.343C55.773 88.583 69 92.064 80 94.703zM95 64.98c0 3.326-3.695 6.02-7.02 6.02H9.02C5.695 71 3 68.307 3 64.98V9.019C3 5.695 5.695 3 9.02 3h78.96C91.305 3 95 5.695 95 9.019V64.98z" fill="#000000" data-fill-palette-color="accent"></path><path d="M88.529 12H9.471C8.659 12 8 12.659 8 13.471v44.058C8 58.342 8.659 59 9.471 59h79.058C89.342 59 90 58.342 90 57.529V13.471C90 12.659 89.342 12 88.529 12zM11 15h37v41H11V15zM87 56H51V15h36V56z" fill="#000000" data-fill-palette-color="accent"></path><path d="M54.5 36h29c0.828 0 1.5-0.671 1.5-1.5v-16c0-0.829-0.672-1.5-1.5-1.5h-29c-0.828 0-1.5 0.671-1.5 1.5v16C53 35.329 53.672 36 54.5 36zM56 20h26v13H56V20z" fill="#000000" data-fill-palette-color="accent"></path><path d="M83 39H55c-0.828 0-1.5 0.671-1.5 1.5S54.172 42 55 42h28c0.828 0 1.5-0.671 1.5-1.5S83.828 39 83 39z" fill="#000000" data-fill-palette-color="accent"></path><path d="M83 45H55c-0.828 0-1.5 0.671-1.5 1.5S54.172 48 55 48h28c0.828 0 1.5-0.671 1.5-1.5S83.828 45 83 45z" fill="#000000" data-fill-palette-color="accent"></path><path d="M83 51H55c-0.828 0-1.5 0.672-1.5 1.5S54.172 54 55 54h28c0.828 0 1.5-0.672 1.5-1.5S83.828 51 83 51z" fill="#000000" data-fill-palette-color="accent"></path></g></svg></g></svg></g><g id="text-0"><path d="M10.703 97.669c-0.358 1.199-0.904 2.055-1.638 2.567-0.734 0.512-1.537 0.638-2.41 0.378v0c-0.728-0.217-1.245-0.775-1.551-1.673v0c-0.316-0.956-0.342-1.876-0.079-2.761 0.262-0.879 0.55-1.535 0.864-1.967 0.318-0.425 0.669-0.764 1.053-1.019v0c0.765-0.503 1.525-0.642 2.278-0.418v0c0.753 0.225 1.279 0.799 1.578 1.722v0c0.292 0.921 0.261 1.978-0.095 3.171zM31.24 107.777l-18.587-5.547 2.232-7.476 18.586 5.547z" fill="#000000" data-fill-palette-color="primary"></path><path d="M51.619 31.747v0c0.359-0.345 0.72-0.328 1.083 0.051v0c0.186 0.194 0.338 0.47 0.455 0.829 0.122 0.364 0.222 0.658 0.301 0.882v0l9.738 24.41-27.102-11 7.157-6.862 13.568 5.803-4.089-10.114c-0.436-1.089-0.774-1.853-1.015-2.294-0.236-0.445-0.363-0.791-0.381-1.037-0.018-0.246 0.077-0.469 0.285-0.668z" fill="#000000" data-fill-palette-color="primary"></path><path d="M104.377 7.91c-1.199 0.356-2.214 0.368-3.045 0.033-0.83-0.334-1.375-0.938-1.635-1.81v0c-0.216-0.728-0.033-1.466 0.552-2.214v0c0.627-0.788 1.383-1.313 2.268-1.576 0.879-0.261 1.586-0.379 2.12-0.353 0.529 0.034 1.006 0.142 1.429 0.323v0c0.84 0.365 1.372 0.925 1.595 1.679v0c0.224 0.753 0.031 1.508-0.578 2.263v0c-0.611 0.749-1.513 1.301-2.706 1.655zM107.152 30.631l-5.526-18.593 7.479-2.222 5.525 18.592z" fill="#000000" data-fill-palette-color="primary"></path><path d="M167.387 5.875c-1.222-0.238-2.123-0.697-2.705-1.377-0.588-0.682-0.795-1.47-0.621-2.364v0c0.145-0.746 0.653-1.314 1.523-1.705v0c0.914-0.409 1.824-0.526 2.731-0.349 0.9 0.175 1.581 0.398 2.042 0.668 0.46 0.276 0.832 0.593 1.117 0.948v0c0.575 0.713 0.788 1.455 0.638 2.226v0c-0.15 0.772-0.667 1.352-1.55 1.741v0c-0.888 0.381-1.947 0.452-3.175 0.212zM153.852 29.988v0c0.27 0.053 0.541 0.255 0.813 0.608 0.273 0.347 0.498 0.594 0.676 0.743v0c0.418 0.322 0.932 0.542 1.543 0.66 0.604 0.118 1.121 0.188 1.551 0.212v0l4.661-23.938 7.629 1.486-3.358 17.144c-0.54 2.771-1.799 4.698-3.779 5.781v0c-1.79 0.966-4.016 1.19-6.678 0.672v0c-1.363-0.265-2.31-0.597-2.839-0.993v0c-0.874-0.651-1.261-1.233-1.162-1.748 0.101-0.521 0.416-0.73 0.943-0.627z" fill="#000000" data-fill-palette-color="primary"></path><path d="M216.074 54.8l0.761-0.925c-1.847-0.188-3.502-0.883-4.964-2.087v0c-1.932-1.59-3.083-3.351-3.452-5.283v0c-0.395-2.005 0.138-3.895 1.599-5.671v0c1.294-1.573 2.96-2.366 4.997-2.377v0c2.075-0.006 4.117 0.817 6.125 2.469v0c1.346 1.107 2.395 2.403 3.149 3.889v0l3.172-3.854c-0.65-0.942-1.299-1.679-1.947-2.213-0.653-0.537-1.227-0.963-1.722-1.277-0.491-0.311-0.985-0.577-1.481-0.799v0c-1.07-0.473-1.998-0.685-2.785-0.636v0c-0.463 0.026-0.803-0.05-1.02-0.229-0.212-0.175-0.329-0.364-0.348-0.567-0.029-0.202 0.011-0.369 0.119-0.5 0.108-0.132 0.231-0.23 0.369-0.294 0.133-0.069 0.311-0.105 0.534-0.108v0c0.478-0.014 1.146 0.128 2.003 0.427v0c1.78 0.599 3.351 1.459 4.711 2.578v0c4.153 3.417 5.988 6.589 5.505 9.517v0c-0.214 1.291-0.91 2.653-2.088 4.085v0l-7.236 8.794zM217.828 52.668l5.562-6.76c-0.712-1.536-1.653-2.785-2.821-3.747v0c-0.187-0.154-0.375-0.287-0.563-0.399v0l-7.341 8.923c0.041 0.043 0.09 0.087 0.145 0.133 0.056 0.046 0.114 0.094 0.175 0.143v0c1.28 1.053 2.894 1.622 4.843 1.707z" fill="#000000" data-fill-palette-color="primary"></path><path d="M242.484 100.472v0c0.46 0.623 0.909 1.015 1.347 1.175v0c0.591 0.224 1.58 0.403 2.965 0.537v0l1.039 0.085 14.887-15.68 2.721 7.803-8.656 8.481 7.54 0.524c1.379 0.095 2.412 0.113 3.099 0.054 0.687-0.059 1.125-0.035 1.315 0.072 0.19 0.107 0.324 0.272 0.402 0.494 0.078 0.223 0.071 0.423-0.02 0.6-0.093 0.171-0.207 0.28-0.343 0.328-0.142 0.05-0.296 0.086-0.462 0.109-0.157 0.027-0.381 0.043-0.67 0.047-0.29 0.004-0.655-0.008-1.095-0.035v0l-18.977-1.364c-2.287-0.153-3.971-0.475-5.051-0.965v0c-0.957-0.416-1.554-0.964-1.791-1.644-0.237-0.68-0.118-1.104 0.359-1.27 0.476-0.166 0.94 0.05 1.391 0.649z" fill="#000000" data-fill-palette-color="primary"></path><path d="M35.202 175.477c-0.37-1.236-0.384-2.285-0.041-3.147 0.343-0.862 0.964-1.427 1.861-1.696v0c0.759-0.228 1.524-0.036 2.296 0.573v0c0.814 0.638 1.358 1.416 1.632 2.332 0.273 0.91 0.395 1.639 0.368 2.187-0.033 0.55-0.142 1.044-0.325 1.483v0c-0.375 0.871-0.951 1.424-1.729 1.657v0c-0.784 0.235-1.566 0.035-2.344-0.601v0c-0.777-0.629-1.349-1.558-1.718-2.788zM11.723 178.391l19.201-5.755 2.319 7.737-19.201 5.754z" fill="#000000" data-fill-palette-color="primary"></path><path d="M74.294 225.466v0c0.369 0.353 0.368 0.724-0.003 1.112v0c-0.19 0.199-0.471 0.369-0.844 0.512-0.368 0.138-0.664 0.253-0.889 0.346v0l-24.769 11.138 10.159-28.472 7.402 7.087-5.401 14.267 10.267-4.671c1.106-0.501 1.88-0.884 2.324-1.149 0.448-0.269 0.797-0.416 1.046-0.439 0.254-0.029 0.49 0.061 0.708 0.269z" fill="#000000" data-fill-palette-color="primary"></path><path d="M111.64 247.879c-1.237-0.369-2.121-0.933-2.654-1.693-0.532-0.76-0.664-1.589-0.396-2.487v0c0.226-0.76 0.806-1.294 1.739-1.604v0c0.98-0.33 1.928-0.358 2.845-0.085 0.91 0.271 1.587 0.569 2.03 0.893 0.442 0.33 0.795 0.692 1.061 1.085v0c0.523 0.792 0.668 1.577 0.436 2.355v0c-0.234 0.785-0.83 1.328-1.788 1.63v0c-0.952 0.304-2.043 0.273-3.273-0.094zM101.19 269.106l5.727-19.21 7.74 2.307-5.726 19.21z" fill="#000000" data-fill-palette-color="primary"></path><path d="M162.29 249.362c-1.267 0.244-2.312 0.151-3.135-0.278-0.823-0.429-1.323-1.103-1.5-2.023v0c-0.15-0.778 0.118-1.52 0.803-2.225v0c0.717-0.745 1.546-1.208 2.484-1.388 0.933-0.179 1.671-0.228 2.214-0.146 0.544 0.089 1.025 0.247 1.442 0.473v0c0.829 0.461 1.32 1.09 1.473 1.888v0c0.155 0.804-0.123 1.561-0.834 2.272v0c-0.704 0.709-1.687 1.185-2.947 1.427zM158.604 277.707v0c0.283-0.054 0.62 0.034 1.012 0.266 0.397 0.224 0.709 0.374 0.937 0.45v0c0.529 0.152 1.106 0.168 1.73 0.047 0.624-0.12 1.145-0.254 1.564-0.4v0l-4.759-24.75 7.893-1.518 3.391 17.739c0.55 2.863 0.088 5.193-1.387 6.991v0c-1.349 1.62-3.398 2.694-6.145 3.222v0c-1.415 0.272-2.454 0.318-3.115 0.139v0c-1.082-0.286-1.675-0.695-1.777-1.229-0.103-0.534 0.116-0.853 0.656-0.957z" fill="#000000" data-fill-palette-color="primary"></path><path d="M228.8 241.358l-0.783-0.959c-0.566 1.833-1.605 3.367-3.117 4.603v0c-2.009 1.641-4.027 2.453-6.055 2.435v0c-2.113-0.008-3.921-0.932-5.426-2.773v0c-1.331-1.628-1.796-3.477-1.397-5.546v0c0.416-2.1 1.666-4.001 3.751-5.705v0c1.395-1.14 2.919-1.941 4.571-2.403v0l-3.264-3.994c-1.085 0.463-1.964 0.971-2.639 1.522-0.675 0.551-1.222 1.046-1.644 1.483-0.412 0.438-0.778 0.885-1.098 1.342v0c-0.7 0.986-1.109 1.883-1.228 2.69v0c-0.062 0.473-0.204 0.801-0.427 0.984-0.223 0.182-0.439 0.265-0.646 0.249-0.208-0.016-0.368-0.093-0.48-0.23-0.108-0.132-0.182-0.274-0.222-0.427-0.046-0.149-0.048-0.338-0.006-0.566v0c0.082-0.49 0.361-1.137 0.837-1.941v0c0.966-1.686 2.156-3.107 3.572-4.264v0c4.301-3.515 7.887-4.732 10.758-3.652v0c1.269 0.486 2.508 1.47 3.718 2.951v0l7.449 9.115zM226.997 239.152l-5.726-7.008c-1.702 0.401-3.16 1.097-4.372 2.088v0c-0.193 0.158-0.365 0.324-0.518 0.5v0l7.554 9.244c0.059-0.031 0.116-0.07 0.172-0.115 0.061-0.05 0.119-0.097 0.175-0.143v0c1.329-1.086 2.234-2.608 2.715-4.566z" fill="#000000" data-fill-palette-color="primary"></path><path d="M269.795 189.77v0c0.03-0.795-0.085-1.398-0.343-1.808v0c-0.328-0.567-1.007-1.351-2.037-2.352v0l-0.793-0.737-22.127 3.06 2.833-8.055 12.464-1.261-5.762-5.297c-1.055-0.968-1.879-1.647-2.471-2.036-0.59-0.395-0.928-0.698-1.014-0.909-0.086-0.211-0.088-0.43-0.008-0.659 0.08-0.229 0.215-0.383 0.403-0.462 0.188-0.08 0.353-0.095 0.495-0.045 0.142 0.05 0.288 0.119 0.437 0.206 0.152 0.081 0.345 0.215 0.578 0.401 0.235 0.18 0.524 0.424 0.868 0.732v0l14.442 13.34c1.751 1.595 2.903 2.941 3.454 4.038v0c0.506 0.949 0.637 1.773 0.392 2.47-0.248 0.704-0.619 0.97-1.114 0.796-0.488-0.172-0.721-0.646-0.697-1.422z" fill="#000000" data-fill-palette-color="primary"></path><path d="M5.813 140.114c0-5.999 4.863-10.863 10.863-10.863 5.999 0 10.863 4.863 10.862 10.863 0 5.999-4.863 10.863-10.862 10.863-5.999 0-10.863-4.863-10.863-10.863z" fill="#000000" data-fill-palette-color="primary"></path><path d="M253.43 140.114c0-5.999 4.863-10.863 10.862-10.863 5.999 0 10.863 4.863 10.863 10.863 0 5.999-4.863 10.863-10.863 10.863-5.999 0-10.863-4.863-10.862-10.863z" fill="#000000" data-fill-palette-color="primary"></path></g><g id="text-1"></g></svg></g></svg></g></svg></g></svg></g><defs></defs></svg><rect width="280" height="280" fill="none" stroke="none" visibility="hidden"></rect></g></svg></g></svg>